<svg xmlns="http://www.w3.org/2000/svg" viewBox="0 0 24 24" width="24" height="24" color="currentColor" fill="none" stroke="currentColor" stroke-width="1.5" stroke-linecap="round" stroke-linejoin="round">
    <path d="M12 13C13.6569 13 15 11.6569 15 10C15 8.34315 13.6569 7 12 7C10.3431 7 9 8.34315 9 10C9 11.6569 10.3431 13 12 13Z" />
    <path d="M12 2C8.13401 2 5 5.13401 5 9C5 13.9083 10.1506 19.2054 11.7376 20.8014C11.8861 20.9521 12.1139 20.9521 12.2624 20.8014C13.8494 19.2054 19 13.9083 19 9C19 5.13401 15.866 2 12 2Z" />
</svg>
