<svg xmlns="http://www.w3.org/2000/svg" viewBox="0 0 24 24" width="24" height="24" color="currentColor" fill="none" stroke="currentColor" stroke-width="1.5" stroke-linecap="round" stroke-linejoin="round">
    <path d="M12 15C8.68629 15 6 17.6863 6 21H18C18 17.6863 15.3137 15 12 15Z" />
    <path d="M12 12C14.2091 12 16 10.2091 16 8C16 5.79086 14.2091 4 12 4C9.79086 4 8 5.79086 8 8C8 10.2091 9.79086 12 12 12Z" />
    <path d="M21.9999 21C21.9999 17.6863 20.2091 15 17.5 15C16.8039 15 16.1449 15.1724 15.5625 15.4768" />
    <path d="M17.5 12C19.1569 12 20.5 10.6569 20.5 9C20.5 7.34315 19.1569 6 17.5 6" />
    <path d="M2 21C2 17.6863 3.79086 15 6.5 15C7.19614 15 7.85508 15.1724 8.4375 15.4768" />
    <path d="M6.5 12C4.84315 12 3.5 10.6569 3.5 9C3.5 7.34315 4.84315 6 6.5 6" />
</svg>
